# xmcd CD database file
#
# Track frame offsets:
#	225
#	24431
#	47180
#	67537
#	85499
#	111212
#	132502
#	157650
#	172555
#	205702
#	231403
#
# Disc length: 3369 seconds
#
# Revision: 0
# Processed by: cddbd v1.5.2PL0 Copyright (c) Steve Scherf et al.
# Submitted via: CDex 1.51
#
DISCID=810d260b
DTITLE=Gerardo Di Giusto - piano solo
DYEAR=1900
DGENRE=Jazz
TTITLE0=01renacimientoM2 - 01renacimientoM2
TTITLE1=02habaneraM2 - 02habaneraM2
TTITLE2=03laluzM2 - 03laluzM2
TTITLE3=04primeroM2 - 04primeroM2
TTITLE4=05melodia - dedicadaM2
TTITLE5=06tardioM2 - 06tardioM2
TTITLE6=07despuesM2 - 07despuesM2
TTITLE7=08bachandolalomaM2 - 08bachandolalomaM2
TTITLE8=09himnoaalgoM2 - 09himnoaalgoM2
TTITLE9=10chacaracaM2 - 10chacaracaM2
TTITLE10=11angelescaidosM2 - 11angelescaidosM2
EXTD=
EXTT0=
EXTT1=
EXTT2=
EXTT3=
EXTT4=
EXTT5=
EXTT6=
EXTT7=
EXTT8=
EXTT9=
EXTT10=
PLAYORDER=
